<svg width="40" height="40" viewBox="0 0 40 40" fill="none" xmlns="http://www.w3.org/2000/svg">
<path d="M0 20C0 8.95431 8.95431 0 20 0C31.0457 0 40 8.95431 40 20C40 31.0457 31.0457 40 20 40C8.95431 40 0 31.0457 0 20Z" fill="#171717"/>
<path d="M25.0306 23.9695C25.1715 24.1104 25.2506 24.3015 25.2506 24.5007C25.2506 24.7 25.1715 24.8911 25.0306 25.032C24.8897 25.1729 24.6986 25.252 24.4993 25.252C24.3001 25.252 24.109 25.1729 23.9681 25.032L20 21.0626L16.0306 25.0307C15.8897 25.1716 15.6986 25.2508 15.4993 25.2508C15.3001 25.2508 15.109 25.1716 14.9681 25.0307C14.8272 24.8898 14.748 24.6987 14.748 24.4995C14.748 24.3002 14.8272 24.1091 14.9681 23.9682L18.9375 20.0001L14.9693 16.0307C14.8285 15.8898 14.7493 15.6987 14.7493 15.4995C14.7493 15.3002 14.8285 15.1091 14.9693 14.9682C15.1102 14.8273 15.3013 14.7482 15.5006 14.7482C15.6999 14.7482 15.891 14.8273 16.0318 14.9682L20 18.9376L23.9693 14.9676C24.1102 14.8267 24.3013 14.7476 24.5006 14.7476C24.6999 14.7476 24.891 14.8267 25.0318 14.9676C25.1727 15.1085 25.2519 15.2996 25.2519 15.4989C25.2519 15.6981 25.1727 15.8892 25.0318 16.0301L21.0625 20.0001L25.0306 23.9695Z" fill="white"/>
</svg>
