<svg width="24" height="24" viewBox="0 0 24 24" fill="none" xmlns="http://www.w3.org/2000/svg">
<path d="M21.0459 12.7959L14.2959 19.5459C14.0846 19.7573 13.7979 19.876 13.4991 19.876C13.2002 19.876 12.9135 19.7573 12.7022 19.5459C12.4908 19.3346 12.3721 19.0479 12.3721 18.749C12.3721 18.4502 12.4908 18.1635 12.7022 17.9522L17.5312 13.125H3.75C3.45163 13.125 3.16548 13.0065 2.9545 12.7955C2.74353 12.5845 2.625 12.2984 2.625 12C2.625 11.7016 2.74353 11.4155 2.9545 11.2045C3.16548 10.9935 3.45163 10.875 3.75 10.875H17.5312L12.7041 6.04498C12.4927 5.83364 12.374 5.54699 12.374 5.24811C12.374 4.94922 12.4927 4.66258 12.7041 4.45123C12.9154 4.23989 13.2021 4.12115 13.5009 4.12115C13.7998 4.12115 14.0865 4.23989 14.2978 4.45123L21.0478 11.2012C21.1527 11.3059 21.2359 11.4302 21.2926 11.5671C21.3493 11.704 21.3784 11.8508 21.3782 11.999C21.3781 12.1471 21.3486 12.2938 21.2916 12.4306C21.2346 12.5674 21.1511 12.6915 21.0459 12.7959Z" fill="white"/>
</svg>
