<svg width="71" height="84" viewBox="0 0 71 84" fill="none" xmlns="http://www.w3.org/2000/svg">
<path d="M26.5 57C26.5 56.7578 26.6716 56.55 26.9081 56.4982C37.721 54.1301 46.2394 43.6308 48.1145 30.3374C48.1416 30.145 48.3058 30 48.5 30C48.6942 30 48.8584 30.145 48.8855 30.3374C50.7606 43.6308 59.279 54.1301 70.0919 56.4982C70.3284 56.55 70.5 56.7578 70.5 57C70.5 57.2422 70.3284 57.45 70.0919 57.5018C59.279 59.8699 50.7606 70.3692 48.8855 83.6626C48.8584 83.855 48.6942 84 48.5 84C48.3058 84 48.1416 83.855 48.1145 83.6626C46.2394 70.3692 37.721 59.8699 26.9081 57.5018C26.6716 57.45 26.5 57.2422 26.5 57Z" fill="#009981"/>
<path d="M0.5 16C0.5 15.8565 0.601642 15.7333 0.741816 15.7025C7.13109 14.2988 12.1645 8.07693 13.2723 0.199377C13.2883 0.0857253 13.3852 0 13.5 0C13.6148 0 13.7117 0.0857248 13.7277 0.199377C14.8355 8.07692 19.8689 14.2988 26.2582 15.7025C26.3984 15.7333 26.5 15.8565 26.5 16C26.5 16.1435 26.3984 16.2667 26.2582 16.2975C19.8689 17.7012 14.8355 23.9231 13.7277 31.8006C13.7117 31.9143 13.6148 32 13.5 32C13.3852 32 13.2883 31.9143 13.2723 31.8006C12.1645 23.9231 7.13109 17.7012 0.741817 16.2975C0.601643 16.2667 0.5 16.1435 0.5 16Z" fill="#009981"/>
</svg>
