<svg width="177" height="40" viewBox="0 0 177 40" fill="none" xmlns="http://www.w3.org/2000/svg">
<path d="M34.4489 0.733017V11.723C34.4489 13.2815 33.8913 14.7892 32.8731 15.9708L24.3389 25.8893V10.5118L33.1688 0.254455C33.6124 -0.257988 34.4532 0.0554068 34.4532 0.733017H34.4489Z" fill="white"/>
<path d="M6.25657 14.577H0.88257V14.5812C0.236169 14.5812 -0.101819 15.3435 0.33334 15.8221L18.6861 37.2176C18.6861 37.2176 20.1225 39.0599 22.8602 39.4453V28.1715L14.3683 18.3038C12.3319 15.9364 9.37451 14.577 6.25657 14.577Z" fill="white"/>
<path d="M46.3165 14.577H40.9425C37.8246 14.577 34.8672 15.9364 32.8308 18.3038L24.3389 28.1715V39.4453C27.0766 39.0599 28.513 37.2176 28.513 37.2176L46.8658 15.8221C47.3009 15.3435 46.9629 14.5812 46.3165 14.5812V14.577Z" fill="white"/>
<path fill-rule="evenodd" clip-rule="evenodd" d="M172.927 15.6695H173.877C174.182 15.6695 174.414 15.7204 174.579 15.8178C174.794 15.9787 174.904 16.1947 174.904 16.4742C174.904 16.8765 174.718 17.1433 174.351 17.2789C174.444 17.4186 174.659 17.7744 175.001 18.3503H174.308L173.725 17.3593H173.518V18.3503H172.927V15.6695ZM173.518 16.1947V16.83H173.835C174.152 16.83 174.308 16.7198 174.308 16.5039C174.308 16.3006 174.148 16.1947 173.835 16.1947H173.518Z" fill="white"/>
<path fill-rule="evenodd" clip-rule="evenodd" d="M175.462 15.3434C175.914 15.7966 176.138 16.3429 176.138 16.9867C176.138 17.6304 175.914 18.1767 175.462 18.6299C175.01 19.083 174.465 19.3075 173.822 19.3075C173.18 19.3075 172.648 19.083 172.196 18.6299C171.744 18.1767 171.52 17.6304 171.52 16.9867C171.52 16.3429 171.744 15.8008 172.192 15.3434C172.64 14.8903 173.189 14.6658 173.835 14.6658C174.482 14.6658 175.01 14.8903 175.462 15.3434ZM175.686 16.9867C175.686 16.47 175.504 16.0295 175.136 15.6568C174.769 15.2884 174.338 15.102 173.835 15.102C173.332 15.102 172.885 15.2842 172.525 15.6526C172.166 16.0211 171.985 16.4657 171.985 16.9867C171.985 17.5076 172.162 17.9522 172.521 18.3207C172.876 18.6891 173.311 18.8713 173.827 18.8713C174.342 18.8713 174.773 18.6891 175.136 18.3207C175.504 17.9522 175.686 17.5076 175.686 16.9867Z" fill="white"/>
<path d="M12.7502 11.723V0.733017H12.746C12.746 0.0554068 13.5867 -0.257988 14.0303 0.254455L22.8602 10.5118V25.8893L14.326 15.9708C13.3079 14.7892 12.7502 13.2815 12.7502 11.723Z" fill="white"/>
<path d="M165.342 30.8653L164.054 32.3179C163.277 33.1903 163.255 34.5074 164.007 35.4053C165.342 37.0061 167.337 39.4963 167.337 39.4963H172.406L165.347 30.8653H165.342Z" fill="white"/>
<path d="M53.0717 14.5858L61.4115 39.4965H67.4826L75.8605 14.5858H70.4992L64.4661 33.7325L58.395 14.5858H53.0717Z" fill="white"/>
<path fill-rule="evenodd" clip-rule="evenodd" d="M87.3486 14.5901C89.7272 14.5901 91.7509 15.4074 93.3817 17.0083C95.0167 18.6091 95.8321 20.6039 95.8321 22.9501C95.8321 25.2963 95.0167 27.291 93.3817 28.8919C91.7466 30.4927 89.7272 31.3143 87.3486 31.3143H82.9843V39.4965H78.0835V14.5858H87.3486V14.5901ZM87.3486 26.7235C89.4441 26.7235 90.9693 25.0888 90.9693 22.9501C90.9693 20.8114 89.4441 19.1766 87.3486 19.1766H82.9843V26.7193H87.3486V26.7235Z" fill="white"/>
<path fill-rule="evenodd" clip-rule="evenodd" d="M114.177 37.4679C115.668 36.1169 116.411 34.372 116.411 32.2715C116.411 29.7474 115.309 27.8246 113.146 26.5795C114.709 25.3344 115.49 23.6277 115.49 21.5991C115.49 19.5705 114.747 17.8976 113.289 16.5805C111.832 15.2634 110.057 14.5858 107.928 14.5858H98.1306V39.4965H108.676C110.839 39.4965 112.685 38.8189 114.177 37.4679ZM111.549 31.9538C111.549 33.6606 110.34 34.9057 108.672 34.9057H103.027V29.0359H108.672C110.34 29.0359 111.549 30.2471 111.549 31.9538ZM103.027 24.6568V19.1766H107.928C109.491 19.1766 110.59 20.3498 110.59 21.9167C110.59 23.4837 109.453 24.6568 107.928 24.6568H103.027Z" fill="white"/>
<path d="M152.618 23.1616C153.899 24.4787 154.537 26.2574 154.537 28.5698V39.4962H149.957V29.1415C149.957 26.7572 148.571 25.4782 146.442 25.4782C144.063 25.4782 142.538 26.9393 142.538 29.8911V39.5005H137.958V21.709H142.538V23.7037C143.641 22.0308 145.415 21.2135 147.827 21.2135C149.779 21.2135 151.376 21.853 152.618 23.1701V23.1616Z" fill="white"/>
<path d="M160.616 34.5746V39.4965H156.036V14.5858H160.616V28.7206L165.009 23.6156C166.065 22.3917 167.603 21.6845 169.217 21.6845H172.005L172.001 21.6802C172.335 21.6802 172.508 22.0783 172.284 22.3239L162.77 33.4198C162.77 33.4198 162.029 34.3727 160.616 34.5746Z" fill="white"/>
<path fill-rule="evenodd" clip-rule="evenodd" d="M131.874 21.713V23.8051C130.488 22.0603 128.575 21.209 126.086 21.209C123.598 21.209 121.684 22.1323 119.981 23.9491C118.312 25.766 117.459 27.9682 117.459 30.6024C117.459 33.2366 118.312 35.477 119.981 37.2938C121.684 39.1064 123.708 40 126.086 40C128.465 40 130.488 39.1445 131.874 37.4039V39.5045H136.454V21.713H131.874ZM126.901 35.7353C124.062 35.7353 121.76 33.4272 121.76 30.5812C121.76 27.7353 124.062 25.4229 126.901 25.4229C129.741 25.4229 132.047 27.731 132.047 30.5812C132.047 33.4314 129.745 35.7353 126.901 35.7353Z" fill="white"/>
</svg>
