<svg width="24" height="24" viewBox="0 0 24 24" fill="none" xmlns="http://www.w3.org/2000/svg">
<path d="M16.5459 12.7959L10.5459 18.7959C10.3346 19.0072 10.0479 19.126 9.74902 19.126C9.45014 19.126 9.16349 19.0072 8.95215 18.7959C8.7408 18.5846 8.62207 18.2979 8.62207 17.999C8.62207 17.7001 8.7408 17.4135 8.95215 17.2021L14.1562 12L8.95402 6.7959C8.84937 6.69125 8.76636 6.56702 8.70973 6.43029C8.65309 6.29356 8.62394 6.14702 8.62394 5.99902C8.62394 5.85103 8.65309 5.70448 8.70973 5.56776C8.76636 5.43103 8.84937 5.30679 8.95402 5.20215C9.05867 5.0975 9.1829 5.01449 9.31963 4.95785C9.45636 4.90122 9.6029 4.87207 9.7509 4.87207C9.89889 4.87207 10.0454 4.90122 10.1822 4.95785C10.3189 5.01449 10.4431 5.0975 10.5478 5.20215L16.5478 11.2021C16.6525 11.3068 16.7356 11.4311 16.7922 11.5679C16.8488 11.7047 16.8779 11.8513 16.8777 11.9994C16.8775 12.1475 16.8481 12.2941 16.7912 12.4307C16.7343 12.5674 16.6509 12.6915 16.5459 12.7959Z" fill="#8F8F8F"/>
</svg>
