<svg width="24" height="24" viewBox="0 0 24 24" fill="none" xmlns="http://www.w3.org/2000/svg">
<path d="M15.0496 17.2041C15.261 17.4154 15.3797 17.7021 15.3797 18.001C15.3797 18.2999 15.261 18.5865 15.0496 18.7978C14.8383 19.0092 14.5516 19.1279 14.2528 19.1279C13.9539 19.1279 13.6672 19.0092 13.4559 18.7978L7.45589 12.7978C7.35101 12.6933 7.26779 12.5691 7.21101 12.4324C7.15423 12.2956 7.125 12.149 7.125 12.001C7.125 11.8529 7.15423 11.7063 7.21101 11.5696C7.26779 11.4328 7.35101 11.3086 7.45589 11.2041L13.4559 5.2041C13.6672 4.99276 13.9539 4.87402 14.2528 4.87402C14.5516 4.87402 14.8383 4.99276 15.0496 5.2041C15.261 5.41544 15.3797 5.70209 15.3797 6.00097C15.3797 6.29986 15.261 6.58651 15.0496 6.79785L9.84745 12L15.0496 17.2041Z" fill="#8F8F8F"/>
</svg>
