<svg width="70" height="70" viewBox="0 0 70 70" fill="none" xmlns="http://www.w3.org/2000/svg">
<path d="M7.65489 45.0951C3.03397 41.945 0 36.6393 0 30.625C0 20.96 7.83502 13.125 17.5 13.125C17.6837 13.125 17.8668 13.1278 18.0492 13.1335C19.9889 5.5813 26.8427 0 35 0C43.1573 0 50.0111 5.5813 51.9508 13.1335C52.1332 13.1278 52.3163 13.125 52.5 13.125C62.165 13.125 70 20.96 70 30.625C70 36.6393 66.966 41.945 62.3451 45.0951C63.3969 47.344 63.9844 49.8534 63.9844 52.5C63.9844 62.165 56.1494 70 46.4844 70C42.0897 70 38.0734 68.3801 35 65.7049C31.9266 68.3801 27.9103 70 23.5156 70C13.8506 70 6.01562 62.165 6.01562 52.5C6.01562 49.8534 6.60315 47.344 7.65489 45.0951Z" fill="#F04343"/>
<path d="M11.233 44.1532L11.4132 43.7678L11.0617 43.5282C7.09964 40.8273 4.5 36.2797 4.5 31.125C4.5 22.8407 11.2157 16.125 19.5 16.125C19.6576 16.125 19.8146 16.1274 19.971 16.1322L20.3711 16.1446L20.4707 15.7569C22.1333 9.28349 28.0087 4.5 35 4.5C41.9913 4.5 47.8667 9.28349 49.5293 15.7569L49.6289 16.1446L50.029 16.1322C50.1854 16.1274 50.3424 16.125 50.5 16.125C58.7843 16.125 65.5 22.8407 65.5 31.125C65.5 36.2797 62.9004 40.8273 58.9383 43.5282L58.5868 43.7678L58.767 44.1532C59.6682 46.0801 60.1719 48.2305 60.1719 50.5C60.1719 58.7843 53.4561 65.5 45.1719 65.5C41.4047 65.5 37.9629 64.1119 35.3283 61.8186L35 61.5328L34.6717 61.8186C32.0371 64.1119 28.5953 65.5 24.8281 65.5C16.5439 65.5 9.82812 58.7843 9.82812 50.5C9.82812 48.2305 10.3318 46.0801 11.233 44.1532Z" stroke="#FFEB99"/>
</svg>
