<svg width="64" height="64" viewBox="0 0 64 64" fill="none" xmlns="http://www.w3.org/2000/svg">
<path d="M49.4142 27.4151L33.4142 43.4151C33.2284 43.6011 33.0078 43.7486 32.765 43.8493C32.5222 43.9499 32.262 44.0017 31.9992 44.0017C31.7363 44.0017 31.4761 43.9499 31.2333 43.8493C30.9905 43.7486 30.7699 43.6011 30.5842 43.4151L14.5842 27.4151C14.2089 27.0399 13.998 26.5309 13.998 26.0001C13.998 25.4694 14.2089 24.9604 14.5842 24.5851C14.9594 24.2099 15.4684 23.999 15.9992 23.999C16.5299 23.999 17.0389 24.2099 17.4142 24.5851L31.9992 39.1726L46.5842 24.5851C46.77 24.3993 46.9906 24.2519 47.2334 24.1513C47.4762 24.0508 47.7364 23.999 47.9992 23.999C48.262 23.999 48.5222 24.0508 48.765 24.1513C49.0077 24.2519 49.2283 24.3993 49.4142 24.5851C49.6 24.771 49.7474 24.9916 49.8479 25.2343C49.9485 25.4771 50.0003 25.7373 50.0003 26.0001C50.0003 26.2629 49.9485 26.5231 49.8479 26.7659C49.7474 27.0087 49.6 27.2293 49.4142 27.4151Z" fill="#6F6F6F"/>
</svg>
