<svg width="38" height="53" viewBox="0 0 38 53" fill="none" xmlns="http://www.w3.org/2000/svg">
<path d="M2.38628 51.8569C2.4653 52.4035 2.08626 52.9107 1.53965 52.9897C0.993051 53.0687 0.485882 52.6897 0.406859 52.1431L2.38628 51.8569ZM37.6643 6.25251C38.0771 6.61938 38.1144 7.25145 37.7475 7.66428L31.769 14.3917C31.4021 14.8045 30.77 14.8417 30.3572 14.4749C29.9444 14.108 29.9071 13.4759 30.274 13.0631L35.5882 7.08321L29.6083 1.76899C29.1955 1.40211 29.1583 0.770046 29.5251 0.357224C29.892 -0.055603 30.5241 -0.0928574 30.9369 0.274014L37.6643 6.25251ZM0.406859 52.1431C-2.71417 30.5549 12.4146 7.44731 36.9412 6.00173L37.0588 7.99827C13.8667 9.36519 -0.591778 31.2576 2.38628 51.8569L0.406859 52.1431Z" fill="#171717"/>
</svg>
