<svg width="32" height="32" viewBox="0 0 32 32" fill="none" xmlns="http://www.w3.org/2000/svg">
<path d="M0 16C0 7.16344 7.16344 0 16 0C24.8366 0 32 7.16344 32 16C32 24.8366 24.8366 32 16 32C7.16344 32 0 24.8366 0 16Z" fill="black" fill-opacity="0.071"/>
<path d="M21.0306 19.9694C21.1715 20.1103 21.2506 20.3014 21.2506 20.5006C21.2506 20.6999 21.1715 20.891 21.0306 21.0319C20.8897 21.1728 20.6986 21.2519 20.4993 21.2519C20.3001 21.2519 20.109 21.1728 19.9681 21.0319L16 17.0625L12.0306 21.0306C11.8897 21.1715 11.6986 21.2507 11.4993 21.2507C11.3001 21.2507 11.109 21.1715 10.9681 21.0306C10.8272 20.8897 10.748 20.6986 10.748 20.4994C10.748 20.3001 10.8272 20.109 10.9681 19.9681L14.9375 16L10.9693 12.0306C10.8285 11.8897 10.7493 11.6986 10.7493 11.4994C10.7493 11.3001 10.8285 11.109 10.9693 10.9681C11.1102 10.8272 11.3013 10.7481 11.5006 10.7481C11.6999 10.7481 11.891 10.8272 12.0318 10.9681L16 14.9375L19.9693 10.9675C20.1102 10.8266 20.3013 10.7474 20.5006 10.7474C20.6999 10.7474 20.891 10.8266 21.0318 10.9675C21.1727 11.1084 21.2519 11.2995 21.2519 11.4987C21.2519 11.698 21.1727 11.8891 21.0318 12.03L17.0625 16L21.0306 19.9694Z" fill="#171717"/>
</svg>
