<svg width="343" height="38" viewBox="0 0 343 38" fill="none" xmlns="http://www.w3.org/2000/svg">
<path d="M173.393 2.0209L180.846 3.93211C181.195 4.02154 181.404 4.37237 181.313 4.7157L180.636 7.27422C180.546 7.61755 180.189 7.82338 179.84 7.73395L172.387 5.82274C172.038 5.73331 171.829 5.38248 171.92 5.03915L172.597 2.48063C172.688 2.13729 173.044 1.93147 173.393 2.0209Z" fill="white"/>
<path d="M68.9669 3.93894L61.5132 2.02773C61.1644 1.93829 60.808 2.14412 60.7172 2.48745L60.0401 5.04598C59.9493 5.38931 60.1584 5.74013 60.5072 5.82956L67.9609 7.74077C68.3097 7.83021 68.6661 7.62438 68.7569 7.28105L69.434 4.72252C69.5248 4.37919 69.3157 4.02837 68.9669 3.93894Z" fill="white"/>
<path d="M204.118 35.4319V14.9494C204.118 13.5553 204.553 12.4235 205.419 11.5582C206.285 10.6929 207.43 10.2603 208.851 10.2603C209.33 10.2603 209.814 10.3083 210.294 10.4001C212.025 10.7585 213.086 11.7985 213.468 13.5247L216.642 27.8804L220.149 13.5247C220.58 11.7985 221.628 10.7585 223.283 10.4001C223.741 10.3083 224.234 10.2603 224.762 10.2603C226.178 10.2603 227.319 10.6929 228.185 11.5582C229.05 12.4191 229.481 13.5509 229.481 14.9494V35.4319H224.322V17.6457L220.389 32.6263C220.269 33.1245 220.078 33.6314 219.812 34.1515C219.212 35.3838 218.2 36 216.784 36C214.955 36 213.752 34.8769 213.175 32.6263L209.312 17.6457V35.4319H204.118Z" fill="white"/>
<path d="M81.6777 35.4318V15.5174C81.6777 14.0709 82.0507 12.8648 82.7965 11.899C83.6133 10.8327 84.7321 10.2995 86.1527 10.2995C86.752 10.2995 87.3558 10.4044 87.9551 10.6185C89.4202 11.143 90.4235 12.3972 90.9473 14.3812L94.7697 28.7587V10.5836H99.9284V31.136C99.9284 32.4121 99.511 33.4959 98.6853 34.3874C97.8551 35.2701 96.8074 35.7421 95.5333 35.7858C93.1315 35.8601 91.5333 34.4486 90.7431 31.5599L86.8719 17.2829V35.4318H81.6777Z" fill="white"/>
<path fill-rule="evenodd" clip-rule="evenodd" d="M60.3512 13.6733L53.3501 35.4319H59.0681L60.7552 30.0742H68.4399L70.1535 35.4319H75.8271L68.866 13.7039C68.1424 11.4795 66.7262 10.3695 64.6086 10.3695C62.491 10.3695 61.0704 11.4708 60.3512 13.6733ZM64.249 16.9683L66.815 24.9962H62.3711L64.249 16.9683Z" fill="white"/>
<path fill-rule="evenodd" clip-rule="evenodd" d="M30.3007 15.9416C30.3007 15.5395 30.3495 15.1025 30.4427 14.6262C30.7579 13.1622 31.3795 12.1046 32.3162 11.4666C33.1819 10.8766 34.4027 10.5795 35.9876 10.5795H42.3982C46.1673 10.5795 48.0496 12.3668 48.0496 15.9372V30.0656C48.0496 33.6404 46.1495 35.4234 42.3494 35.4234H35.961C34.3006 35.4234 33.062 35.1524 32.2452 34.6018C31.3306 33.9594 30.7313 32.8756 30.4427 31.3461C30.3451 30.826 30.2962 30.3934 30.2962 30.0613V15.9328L30.3007 15.9416ZM35.7124 28.3657C35.7124 29.5019 36.3117 30.07 37.5148 30.07H40.8311C41.4792 30.07 41.9409 29.9695 42.2206 29.7685C42.4959 29.5675 42.6335 29.1567 42.6335 28.5449V17.6459C42.6335 17.0079 42.5003 16.5621 42.2339 16.313C41.9676 16.0639 41.4925 15.9416 40.8133 15.9416H37.4571C36.7778 15.9416 36.3161 16.0596 36.072 16.2955C35.8278 16.5315 35.7079 16.9816 35.7079 17.6415V28.3613L35.7124 28.3657Z" fill="white"/>
<path d="M5 35.432V10.5838H10.4117V20.2722H18.0964V10.5838H23.5081V35.432H18.0964V25.6343H10.4117V35.432H5Z" fill="white"/>
<path d="M106.709 16.7237V28.4049H106.713C106.713 29.8252 106.749 30.7735 106.82 31.2455C107.228 34.0379 109.27 35.432 112.951 35.432H119.192C121.647 35.432 123.343 34.4487 124.28 32.4866C124.595 31.8223 124.751 30.7036 124.751 29.1172V21.1637H119.339V28.973C119.241 29.7072 118.664 30.0743 117.608 30.0743H113.275C112.649 29.9301 112.267 29.5848 112.12 29.0429V16.9728C112.218 16.3566 112.555 16.0114 113.133 15.9415H123.161V10.5838H112.915C110.629 10.5838 109.026 11.0382 108.098 11.9516C107.17 12.8606 106.709 14.4513 106.709 16.7237Z" fill="white"/>
<path d="M141.016 35.432V10.5838H146.427V20.2722H154.112V10.5838H159.524V35.432H154.112V25.6343H146.427V35.432H141.016Z" fill="white"/>
<path fill-rule="evenodd" clip-rule="evenodd" d="M172.371 13.6733L165.375 35.4319H171.084L172.771 30.0742H180.455L182.174 35.4319H187.847L180.886 13.7039C180.162 11.4795 178.746 10.3695 176.629 10.3695C174.511 10.3695 173.09 11.4708 172.371 13.6733ZM176.269 16.9683L178.835 24.9962H174.391L176.269 16.9683Z" fill="white"/>
<path fill-rule="evenodd" clip-rule="evenodd" d="M236.381 14.6262C236.287 15.1025 236.238 15.5395 236.238 15.9416V30.0613C236.238 30.3934 236.287 30.826 236.385 31.3461C236.674 32.8756 237.273 33.9594 238.187 34.6018C239.004 35.1524 240.243 35.4234 241.903 35.4234H248.287C252.087 35.4234 253.987 33.6404 253.987 30.0656V15.9372C253.987 12.3668 252.105 10.5795 248.336 10.5795H241.925C240.341 10.5795 239.12 10.8766 238.254 11.4666C237.317 12.1046 236.691 13.1622 236.381 14.6262ZM243.453 30.07C242.249 30.07 241.65 29.5019 241.65 28.3657V17.6415C241.65 16.9816 241.77 16.5315 242.014 16.2955C242.258 16.0596 242.72 15.9416 243.399 15.9416H246.756C247.435 15.9416 247.91 16.0639 248.176 16.313C248.443 16.5621 248.576 17.0079 248.576 17.6459V28.5449C248.576 29.1567 248.438 29.5675 248.163 29.7685C247.888 29.9695 247.421 30.07 246.773 30.07H243.453Z" fill="white"/>
<path fill-rule="evenodd" clip-rule="evenodd" d="M260.766 10.5796H273.841C275.701 10.5796 277.077 11.1346 277.969 12.249C278.573 13.005 278.875 14.3204 278.875 16.1864V18.2097C278.875 20.6002 278.129 22.1734 276.638 22.9294C277.889 23.4932 278.609 24.6556 278.804 26.408C278.853 26.8363 278.875 27.1509 278.875 27.365V29.8516C278.875 30.1794 278.848 30.5333 278.804 30.9135C278.418 33.9202 276.673 35.4235 273.574 35.4235H260.766V10.5796ZM266.178 30.0701H272.167C272.984 29.974 273.392 29.5151 273.392 28.6848V27.0854C273.392 26.255 272.948 25.77 272.06 25.6301H266.178C266.227 28.5668 266.227 30.0439 266.178 30.0701ZM266.178 20.268H272.145C272.979 20.268 273.392 19.8179 273.392 18.9221V17.2876C273.392 16.9337 273.272 16.619 273.037 16.3481C272.802 16.0771 272.5 15.9417 272.145 15.9417H266.178V20.268Z" fill="white"/>
<path d="M285.627 10.5838H291.039V35.432H285.627V10.5838Z" fill="white"/>
<path d="M297.858 29.3576V10.5838H303.27V28.9337C303.27 29.6897 303.727 30.0699 304.638 30.0699H314.271L314.236 35.4276H304.171C303.812 35.4276 303.497 35.4189 303.23 35.3927C301.281 35.2266 299.901 34.6629 299.084 33.7058C298.267 32.7488 297.858 31.2979 297.858 29.3576Z" fill="white"/>
<path d="M320.516 15.9457V30.2402H320.512C320.512 33.7013 322.519 35.4319 326.536 35.4319H337V30.0742H327.331C326.394 29.978 325.924 29.4187 325.924 28.4048V25.6342H337V20.2721H325.924V17.5058C325.924 16.7236 326.234 16.2429 326.86 16.0506C327.002 15.9807 327.113 15.9457 327.184 15.9457H337V10.588H325.781C322.803 10.588 321.08 12.0083 320.623 14.8532C320.552 15.299 320.516 15.666 320.516 15.9457Z" fill="white"/>
</svg>
