<svg width="455" height="87" viewBox="0 0 455 87" fill="none" xmlns="http://www.w3.org/2000/svg">
<path d="M96.0266 -0.00146484L43.649 43.4985H0.000976562L34.9194 14.484V-0.00146484H96.0266Z" fill="#6563D4"/>
<path d="M52.3785 57.984V43.4986H113.486L61.1081 86.9985H17.4601L52.3785 57.984Z" fill="#6563D4"/>
<path d="M353.302 17.4848L355.746 0.258789H376.304L353.345 17.4848H353.302Z" fill="white"/>
<path d="M343.699 85.6492L353.04 19.5293H371.416L362.075 85.6492H343.699Z" fill="white"/>
<path d="M315.852 85.6057H334.402L334.359 85.5187L340.644 40.8443C341.168 37.4948 341.299 34.1453 341.168 30.8393C341.037 27.5333 340.382 24.5318 339.247 21.7913C338.112 19.0508 336.192 16.9193 333.529 15.3098C330.867 13.7003 327.244 12.9173 322.748 12.9173C318.514 12.9173 314.455 13.5263 310.614 14.7008C306.729 15.8753 303.238 17.5283 300.095 19.6163C296.909 21.7043 294.202 24.3143 291.933 27.4028L293.81 14.0483H277.092L267.01 85.5622H285.386L291.278 43.8893C292.806 41.0183 294.683 38.4518 296.996 36.2768C299.309 34.1018 301.797 32.3618 304.503 31.1003C307.21 29.8388 309.828 29.2298 312.316 29.2298C315.983 29.2298 318.645 30.5783 320.26 33.1883C321.875 35.7983 322.268 39.9743 321.482 45.6728L315.852 85.6057Z" fill="white"/>
<path d="M156.275 86.9977C150.077 86.9977 144.315 85.9972 138.946 83.9527C133.578 81.9082 129.169 78.9503 125.765 74.9918L134.232 62.9858C137.986 66.4658 141.827 69.0323 145.712 70.6853C149.64 72.3382 153.568 73.1648 157.54 73.1648C161.12 73.1648 164.088 72.5558 166.445 71.2943C168.802 70.0328 170.111 68.2058 170.46 65.7263C170.722 63.8993 170.329 62.5508 169.238 61.5938C168.191 60.6368 166.576 59.8103 164.393 59.1578C162.211 58.4618 159.592 57.6788 156.493 56.7653C151.386 55.1123 147.152 53.4593 143.835 51.8063C140.518 50.1533 138.117 48.0218 136.633 45.5423C135.149 43.0628 134.669 39.8438 135.236 35.9723C135.891 31.2743 137.681 27.1853 140.605 23.7923C143.529 20.3993 147.327 17.7458 151.953 15.8318C156.58 13.9178 161.862 12.9608 167.754 12.9608C172.905 12.9608 177.706 13.7873 182.071 15.3533C186.435 16.9628 190.276 19.5728 193.55 23.1398L184.253 34.9718C181.067 32.0138 177.924 29.8823 174.781 28.5773C171.639 27.2288 168.365 26.5763 164.961 26.5763C163.04 26.5763 161.163 26.7938 159.417 27.2723C157.671 27.7508 156.144 28.4903 154.965 29.4908C153.743 30.5348 153.001 32.0138 152.739 33.8843C152.521 35.4938 152.826 36.8423 153.656 37.7993C154.485 38.7998 155.838 39.6263 157.715 40.3658C159.592 41.1053 161.905 41.8883 164.611 42.8018C170.198 44.4548 174.825 46.0643 178.579 47.7608C182.289 49.4573 185.039 51.5453 186.741 54.0683C188.443 56.5913 189.011 60.0278 188.4 64.3778C187.396 71.4248 183.991 76.9492 178.186 80.9077C172.381 84.9097 165.048 86.8672 156.187 86.8672L156.275 86.9977Z" fill="white"/>
<path fill-rule="evenodd" clip-rule="evenodd" d="M224.584 86.9976C218.779 86.9976 213.672 86.0406 209.22 84.0831C204.768 82.1256 201.145 79.4286 198.308 76.0356C195.471 72.6426 193.463 68.7276 192.328 64.3776C191.193 60.0276 190.975 55.3296 191.673 50.3271C192.633 43.5846 195.034 37.4076 198.919 31.7091C202.803 26.0106 207.823 21.4867 213.977 18.0937C220.132 14.7007 227.159 13.0042 235.103 13.0042C243.047 13.0042 249.419 14.7007 254.57 18.1372C259.72 21.5737 263.431 26.0106 265.657 31.5786C267.926 37.1466 268.581 43.1931 267.664 49.7181C267.49 50.8926 267.272 52.0236 267.053 53.0676C266.952 53.4708 266.864 53.848 266.781 54.2017C266.65 54.7641 266.533 55.2672 266.399 55.7211H210.529C210.267 59.5056 210.835 62.7246 212.275 65.3346C213.715 67.9446 215.723 70.0326 218.342 71.4681C220.961 72.9036 223.842 73.5996 226.941 73.5996C230.738 73.5996 234.361 72.6861 237.896 70.9026C241.432 69.1191 244.007 66.6831 245.622 63.6816L260.768 68.0751C258.586 71.7726 255.705 74.9916 252.038 77.8626C248.416 80.6901 244.269 82.9521 239.642 84.5616C234.972 86.1711 229.952 86.9541 224.496 86.9541L224.584 86.9976ZM249.55 44.1501C249.681 40.5396 249.07 37.4511 247.761 34.7976C246.451 32.1441 244.487 30.0996 241.912 28.6206C239.337 27.1416 236.369 26.4021 232.964 26.4021C229.56 26.4021 226.504 27.1416 223.58 28.6206C220.655 30.0996 218.167 32.1441 216.072 34.7976C213.977 37.4511 212.493 40.5831 211.62 44.1501H249.55Z" fill="white"/>
<path fill-rule="evenodd" clip-rule="evenodd" d="M379.403 31.2743C375.868 36.8858 373.598 43.1063 372.638 49.9358V49.8923C371.94 55.0687 372.07 59.9407 373.162 64.4212C374.209 68.9452 376.042 72.9037 378.661 76.2967C381.28 79.7332 384.554 82.3432 388.482 84.2137C392.41 86.0842 396.862 86.9977 401.838 86.9977C406.814 86.9977 411.746 85.8232 416.635 83.4307C421.524 81.0382 425.627 77.5582 428.944 73.0777L428.595 77.6452C428.507 80.2987 429.424 82.4737 431.344 84.1267C433.265 85.7797 435.927 86.5627 439.245 86.4757C441.165 86.5627 443.828 86.3017 447.232 85.6492L449.371 70.6417C447.843 70.4677 446.796 69.9457 446.272 69.1192C445.748 68.2927 445.617 66.9007 445.879 64.9867L455.002 0.258789H436.32L432.567 26.9243C430.821 22.8788 427.984 19.5293 424.012 16.9193C420.04 14.3093 415.413 13.0043 410.175 13.0043C403.934 13.0043 398.085 14.6573 392.76 17.9198C387.435 21.1823 382.982 25.6628 379.403 31.2743ZM430.515 42.4973L428.158 59.2448H428.115C427.329 61.0717 426.15 62.6812 424.666 64.1167C423.182 65.5522 421.524 66.8137 419.778 67.9012C417.988 68.9887 416.199 69.8587 414.365 70.4242C412.532 70.9897 410.699 71.2942 408.866 71.2942C405.985 71.2942 403.41 70.7722 401.053 69.7282C398.739 68.6842 396.819 67.2052 395.335 65.2477C393.851 63.3337 392.803 61.0717 392.148 58.5052C391.494 55.9387 391.363 53.0678 391.799 50.1968C392.236 47.3258 393.065 44.5853 394.287 42.0188C395.553 39.4523 397.168 37.1903 399.132 35.1893C401.096 33.1883 403.322 31.6223 405.81 30.4478C408.255 29.2733 410.961 28.7078 413.798 28.7078C416.286 28.7078 418.687 29.3168 421 30.5348C423.313 31.7093 425.321 33.3623 427.067 35.4503C428.813 37.5383 429.948 39.8873 430.515 42.4973Z" fill="white"/>
</svg>
