<svg width="66" height="83" viewBox="0 0 66 83" fill="none" xmlns="http://www.w3.org/2000/svg">
<path d="M21.5 27C21.5 26.7578 21.6716 26.55 21.9081 26.4982C32.721 24.1301 41.2394 13.6308 43.1145 0.337384C43.1416 0.145043 43.3058 0 43.5 0C43.6942 0 43.8584 0.145044 43.8855 0.337385C45.7606 13.6308 54.279 24.1301 65.0919 26.4982C65.3284 26.55 65.5 26.7578 65.5 27C65.5 27.2422 65.3284 27.45 65.0919 27.5018C54.279 29.8699 45.7606 40.3692 43.8855 53.6626C43.8584 53.855 43.6942 54 43.5 54C43.3058 54 43.1416 53.855 43.1145 53.6626C41.2394 40.3692 32.721 29.8699 21.9081 27.5018C21.6716 27.45 21.5 27.2422 21.5 27Z" fill="#009981"/>
<path d="M0.5 67C0.5 66.8565 0.601642 66.7333 0.741816 66.7025C7.13109 65.2988 12.1645 59.0769 13.2723 51.1994C13.2883 51.0857 13.3852 51 13.5 51C13.6148 51 13.7117 51.0857 13.7277 51.1994C14.8355 59.0769 19.8689 65.2988 26.2582 66.7025C26.3984 66.7333 26.5 66.8565 26.5 67C26.5 67.1435 26.3984 67.2667 26.2582 67.2975C19.8689 68.7012 14.8355 74.9231 13.7277 82.8006C13.7117 82.9143 13.6148 83 13.5 83C13.3852 83 13.2883 82.9143 13.2723 82.8006C12.1645 74.9231 7.13109 68.7012 0.741817 67.2975C0.601643 67.2667 0.5 67.1435 0.5 67Z" fill="#009981"/>
</svg>
