<svg width="96" height="96" viewBox="0 0 96 96" fill="none" xmlns="http://www.w3.org/2000/svg">
<path d="M0 48C0 21.4903 21.4903 0 48 0C74.5097 0 96 21.4903 96 48C96 74.5097 74.5097 96 48 96C21.4903 96 0 74.5097 0 48Z" fill="#009981"/>
<path d="M69 30.5H27C26.0717 30.5 25.1815 30.8687 24.5251 31.5251C23.8687 32.1815 23.5 33.0717 23.5 34V62C23.5 62.9283 23.8687 63.8185 24.5251 64.4749C25.1815 65.1312 26.0717 65.5 27 65.5H69C69.9283 65.5 70.8185 65.1312 71.4749 64.4749C72.1312 63.8185 72.5 62.9283 72.5 62V34C72.5 33.0717 72.1312 32.1815 71.4749 31.5251C70.8185 30.8687 69.9283 30.5 69 30.5ZM69 34V39.25H27V34H69ZM69 62H27V42.75H69V62ZM65.5 56.75C65.5 57.2141 65.3156 57.6593 64.9874 57.9874C64.6592 58.3156 64.2141 58.5 63.75 58.5H56.75C56.2859 58.5 55.8408 58.3156 55.5126 57.9874C55.1844 57.6593 55 57.2141 55 56.75C55 56.2859 55.1844 55.8407 55.5126 55.5126C55.8408 55.1844 56.2859 55 56.75 55H63.75C64.2141 55 64.6592 55.1844 64.9874 55.5126C65.3156 55.8407 65.5 56.2859 65.5 56.75ZM51.5 56.75C51.5 57.2141 51.3156 57.6593 50.9874 57.9874C50.6593 58.3156 50.2141 58.5 49.75 58.5H46.25C45.7859 58.5 45.3408 58.3156 45.0126 57.9874C44.6844 57.6593 44.5 57.2141 44.5 56.75C44.5 56.2859 44.6844 55.8407 45.0126 55.5126C45.3408 55.1844 45.7859 55 46.25 55H49.75C50.2141 55 50.6593 55.1844 50.9874 55.5126C51.3156 55.8407 51.5 56.2859 51.5 56.75Z" fill="white"/>
</svg>
