<svg width="96" height="96" viewBox="0 0 96 96" fill="none" xmlns="http://www.w3.org/2000/svg">
<path d="M0 48C0 21.4903 21.4903 0 48 0C74.5097 0 96 21.4903 96 48C96 74.5097 74.5097 96 48 96C21.4903 96 0 74.5097 0 48Z" fill="#009981"/>
<path d="M48 25.25C43.5005 25.25 39.102 26.5843 35.3608 29.0841C31.6196 31.5839 28.7036 35.1369 26.9818 39.294C25.2599 43.451 24.8093 48.0252 25.6871 52.4383C26.565 56.8514 28.7317 60.905 31.9133 64.0867C35.095 67.2683 39.1486 69.4351 43.5617 70.3129C47.9748 71.1907 52.549 70.7402 56.7061 69.0183C60.8631 67.2964 64.4161 64.3804 66.9159 60.6392C69.4157 56.898 70.75 52.4995 70.75 48C70.7436 41.9683 68.3447 36.1854 64.0797 31.9204C59.8146 27.6553 54.0317 25.2564 48 25.25ZM48 67.25C44.1927 67.25 40.4709 66.121 37.3053 64.0058C34.1396 61.8906 31.6723 58.8841 30.2153 55.3667C28.7583 51.8492 28.3771 47.9786 29.1199 44.2445C29.8627 40.5104 31.696 37.0804 34.3882 34.3882C37.0804 31.696 40.5104 29.8626 44.2445 29.1199C47.9787 28.3771 51.8492 28.7583 55.3667 30.2153C58.8841 31.6723 61.8906 34.1396 64.0058 37.3053C66.121 40.4709 67.25 44.1927 67.25 48C67.2442 53.1036 65.2142 57.9966 61.6054 61.6054C57.9966 65.2142 53.1037 67.2442 48 67.25ZM56.75 52.375C56.75 53.9995 56.1047 55.5574 54.956 56.706C53.8074 57.8547 52.2495 58.5 50.625 58.5H49.75V60.25C49.75 60.7141 49.5656 61.1592 49.2374 61.4874C48.9093 61.8156 48.4641 62 48 62C47.5359 62 47.0908 61.8156 46.7626 61.4874C46.4344 61.1592 46.25 60.7141 46.25 60.25V58.5H42.75C42.2859 58.5 41.8408 58.3156 41.5126 57.9874C41.1844 57.6592 41 57.2141 41 56.75C41 56.2859 41.1844 55.8407 41.5126 55.5126C41.8408 55.1844 42.2859 55 42.75 55H50.625C51.3212 55 51.9889 54.7234 52.4812 54.2312C52.9734 53.7389 53.25 53.0712 53.25 52.375C53.25 51.6788 52.9734 51.0111 52.4812 50.5188C51.9889 50.0266 51.3212 49.75 50.625 49.75H45.375C43.7506 49.75 42.1926 49.1047 41.044 47.956C39.8953 46.8074 39.25 45.2495 39.25 43.625C39.25 42.0005 39.8953 40.4426 41.044 39.294C42.1926 38.1453 43.7506 37.5 45.375 37.5H46.25V35.75C46.25 35.2859 46.4344 34.8408 46.7626 34.5126C47.0908 34.1844 47.5359 34 48 34C48.4641 34 48.9093 34.1844 49.2374 34.5126C49.5656 34.8408 49.75 35.2859 49.75 35.75V37.5H53.25C53.7141 37.5 54.1593 37.6844 54.4874 38.0126C54.8156 38.3408 55 38.7859 55 39.25C55 39.7141 54.8156 40.1592 54.4874 40.4874C54.1593 40.8156 53.7141 41 53.25 41H45.375C44.6788 41 44.0111 41.2766 43.5189 41.7688C43.0266 42.2611 42.75 42.9288 42.75 43.625C42.75 44.3212 43.0266 44.9889 43.5189 45.4812C44.0111 45.9734 44.6788 46.25 45.375 46.25H50.625C52.2495 46.25 53.8074 46.8953 54.956 48.044C56.1047 49.1926 56.75 50.7505 56.75 52.375Z" fill="white"/>
</svg>
