<svg width="96" height="96" viewBox="0 0 96 96" fill="none" xmlns="http://www.w3.org/2000/svg">
<path d="M0 48C0 21.4903 21.4903 0 48 0C74.5097 0 96 21.4903 96 48C96 74.5097 74.5097 96 48 96C21.4903 96 0 74.5097 0 48Z" fill="#009981"/>
<path d="M52.2603 40.4275C53.3503 40.4275 54.2339 41.2941 54.2339 42.363V53.2492C54.2339 54.3181 53.3503 55.1846 52.2603 55.1846C51.1702 55.1846 50.2866 54.3181 50.2866 53.2492V42.363C50.2866 41.2941 51.1702 40.4275 52.2603 40.4275Z" fill="white"/>
<path fill-rule="evenodd" clip-rule="evenodd" d="M32.5699 28C27.3107 28 23.0028 32.134 23.0024 37.2889L23 43.336C22.9998 43.8495 23.2076 44.342 23.5778 44.7051C23.948 45.0682 24.4501 45.2722 24.9737 45.2722C26.7878 45.2722 28.0121 46.5039 28.0121 48.0023C28.0121 49.5993 26.6832 50.9208 24.9737 50.9208C23.8836 50.9208 23 51.7873 23 52.8563V58.7103C23 63.8652 27.3052 68 32.5675 68H63.4325C68.6948 68 73 63.8652 73 58.7103V52.8563C73 51.7873 72.1163 50.9208 71.0263 50.9208C69.3168 50.9208 67.9879 49.5993 67.9879 48.0023C67.9879 46.4042 69.318 45.0815 71.0263 45.0815C71.5499 45.0815 72.052 44.8775 72.4222 44.5144C72.7924 44.1512 73.0002 43.6587 73 43.1453L72.9976 37.2889C72.9972 32.134 68.6893 28 63.4301 28H32.5699ZM26.9498 37.2897C26.9498 34.3186 29.443 31.871 32.5699 31.871H50.2866V35.9651C50.2866 37.0341 51.1702 37.9006 52.2603 37.9006C53.3503 37.9006 54.2339 37.0341 54.2339 35.9651V31.871H63.4301C66.557 31.871 69.0502 34.3194 69.0502 37.2905L69.0519 41.4849C66.1623 42.3086 64.0405 44.8966 64.0405 48.0023C64.0405 51.1091 66.1632 53.695 69.0526 54.5178V58.7103C69.0526 61.6818 66.5614 64.129 63.4325 64.129H54.2339V61.0072C54.2339 59.9382 53.3503 59.0717 52.2603 59.0717C51.1702 59.0717 50.2866 59.9382 50.2866 61.0072V64.129H32.5675C29.4386 64.129 26.9474 61.6818 26.9474 58.7103V54.5178C29.8368 53.695 31.9595 51.1091 31.9595 48.0023C31.9595 44.8289 29.7858 42.4297 26.948 41.662L26.9498 37.2897Z" fill="white"/>
</svg>
