<svg width="126" height="24" viewBox="0 0 126 24" fill="none" xmlns="http://www.w3.org/2000/svg">
<path d="M26.4175 0L12.008 12H0L9.60638 3.996V0H26.4175Z" fill="#6563D4"/>
<path d="M14.4095 15.996V12H31.2207L16.8111 24H4.80317L14.4095 15.996Z" fill="#6563D4"/>
<path d="M97.4081 4.82426L98.0806 0.0722656H103.736L97.4201 4.82426H97.4081Z" fill="#171717"/>
<path d="M94.7664 23.6283L97.3361 5.38826H102.391L99.8217 23.6283H94.7664Z" fill="#171717"/>
<path d="M87.1053 23.6162H92.2087L92.1967 23.5922L93.9258 11.2683C94.0699 10.3443 94.1059 9.42026 94.0699 8.50826C94.0339 7.59626 93.8538 6.76826 93.5415 6.01226C93.2293 5.25626 92.701 4.66826 91.9685 4.22426C91.236 3.78026 90.2394 3.56426 89.0025 3.56426C87.8378 3.56426 86.721 3.73226 85.6643 4.05626C84.5956 4.38026 83.635 4.83626 82.7704 5.41226C81.8938 5.98826 81.1493 6.70826 80.5249 7.56026L81.0412 3.87626H76.4422L73.6684 23.6042H78.7237L80.3448 12.1083C80.7651 11.3163 81.2814 10.6083 81.9178 10.0083C82.5543 9.40826 83.2387 8.92826 83.9832 8.58026C84.7277 8.23226 85.4482 8.06426 86.1326 8.06426C87.1413 8.06426 87.8738 8.43626 88.3181 9.15626C88.7624 9.87626 88.8704 11.0283 88.6543 12.6003L87.1053 23.6162Z" fill="#171717"/>
<path d="M43.2041 24.0003C41.499 24.0003 39.9139 23.7243 38.437 23.1603C36.96 22.5963 35.7472 21.7803 34.8105 20.6883L37.1401 17.3763C38.1728 18.3363 39.2295 19.0443 40.2982 19.5003C41.3789 19.9563 42.4596 20.1843 43.5524 20.1843C44.537 20.1843 45.3535 20.0163 46.002 19.6683C46.6504 19.3203 47.0106 18.8163 47.1067 18.1323C47.1788 17.6283 47.0707 17.2563 46.7705 16.9923C46.4823 16.7283 46.038 16.5003 45.4376 16.3203C44.8372 16.1283 44.1167 15.9123 43.2642 15.6603C41.8592 15.2043 40.6945 14.7483 39.7818 14.2923C38.8692 13.8363 38.2088 13.2483 37.8005 12.5643C37.3923 11.8803 37.2602 10.9923 37.4163 9.92426C37.5964 8.62826 38.0887 7.50027 38.8933 6.56427C39.6978 5.62827 40.7425 4.89627 42.0153 4.36827C43.2882 3.84027 44.7411 3.57627 46.3622 3.57627C47.7792 3.57627 49.1 3.80427 50.3008 4.23627C51.5016 4.68027 52.5583 5.40027 53.4589 6.38427L50.9012 9.64826C50.0246 8.83226 49.1601 8.24426 48.2955 7.88426C47.4309 7.51226 46.5303 7.33226 45.5937 7.33226C45.0654 7.33226 44.549 7.39227 44.0687 7.52427C43.5884 7.65627 43.1681 7.86026 42.8439 8.13626C42.5077 8.42426 42.3035 8.83226 42.2315 9.34826C42.1714 9.79226 42.2555 10.1643 42.4836 10.4283C42.7118 10.7043 43.084 10.9323 43.6004 11.1363C44.1167 11.3403 44.7531 11.5563 45.4976 11.8083C47.0347 12.2643 48.3075 12.7083 49.3402 13.1763C50.3609 13.6443 51.1174 14.2203 51.5857 14.9163C52.054 15.6123 52.2101 16.5603 52.042 17.7603C51.7658 19.7043 50.8292 21.2283 49.2321 22.3203C47.6351 23.4243 45.6177 23.9643 43.1801 23.9643L43.2041 24.0003Z" fill="#171717"/>
<path fill-rule="evenodd" clip-rule="evenodd" d="M61.9966 24.0002C60.3995 24.0002 58.9946 23.7362 57.7698 23.1962C56.545 22.6562 55.5483 21.9122 54.7678 20.9762C53.9873 20.0402 53.4349 18.9602 53.1227 17.7602C52.8105 16.5602 52.7505 15.2642 52.9426 13.8842C53.2068 12.0242 53.8672 10.3202 54.9359 8.74823C56.0046 7.17623 57.3855 5.92823 59.0787 4.99223C60.7718 4.05623 62.7051 3.58823 64.8905 3.58823C67.076 3.58823 68.8291 4.05623 70.2461 5.00423C71.663 5.95223 72.6837 7.17623 73.2961 8.71223C73.9205 10.2482 74.1006 11.9162 73.8485 13.7162C73.8004 14.0402 73.7404 14.3522 73.6803 14.6402C73.6525 14.7514 73.6283 14.8555 73.6055 14.9531C73.5694 15.1082 73.5371 15.247 73.5002 15.3722H58.13C58.058 16.4162 58.2141 17.3042 58.6103 18.0242C59.0066 18.7442 59.559 19.3202 60.2795 19.7162C60.9999 20.1122 61.7924 20.3042 62.645 20.3042C63.6897 20.3042 64.6864 20.0522 65.659 19.5602C66.6317 19.0682 67.3401 18.3962 67.7844 17.5682L71.9512 18.7802C71.3508 19.8002 70.5583 20.6882 69.5496 21.4802C68.5529 22.2602 67.4122 22.8842 66.1393 23.3282C64.8545 23.7722 63.4736 23.9882 61.9726 23.9882L61.9966 24.0002ZM68.8651 12.1802C68.9012 11.1842 68.7331 10.3322 68.3728 9.60022C68.0126 8.86823 67.4722 8.30423 66.7637 7.89623C66.0553 7.48823 65.2387 7.28423 64.3021 7.28423C63.3655 7.28423 62.5249 7.48823 61.7204 7.89623C60.9159 8.30423 60.2314 8.86823 59.655 9.60022C59.0787 10.3322 58.6704 11.1962 58.4302 12.1802H68.8651Z" fill="#171717"/>
<path fill-rule="evenodd" clip-rule="evenodd" d="M104.589 8.62826C103.616 10.1763 102.992 11.8923 102.728 13.7763V13.7643C102.535 15.1923 102.572 16.5363 102.872 17.7723C103.16 19.0203 103.664 20.1123 104.385 21.0483C105.105 21.9963 106.006 22.7162 107.087 23.2322C108.167 23.7482 109.392 24.0002 110.761 24.0002C112.13 24.0002 113.487 23.6762 114.832 23.0162C116.177 22.3563 117.305 21.3962 118.218 20.1602L118.122 21.4203C118.098 22.1523 118.35 22.7522 118.878 23.2082C119.407 23.6642 120.139 23.8802 121.052 23.8562C121.58 23.8802 122.313 23.8083 123.249 23.6283L123.838 19.4883C123.417 19.4403 123.129 19.2963 122.985 19.0683C122.841 18.8403 122.805 18.4563 122.877 17.9283L125.387 0.0722656H120.247L119.215 7.42826C118.734 6.31226 117.954 5.38826 116.861 4.66826C115.768 3.94826 114.495 3.58826 113.054 3.58826C111.337 3.58826 109.728 4.04426 108.263 4.94426C106.798 5.84426 105.574 7.08026 104.589 8.62826ZM118.65 11.7243L118.002 16.3443H117.99C117.774 16.8483 117.449 17.2923 117.041 17.6883C116.633 18.0843 116.177 18.4323 115.696 18.7323C115.204 19.0323 114.712 19.2723 114.207 19.4283C113.703 19.5843 113.199 19.6682 112.694 19.6682C111.902 19.6682 111.193 19.5243 110.545 19.2363C109.908 18.9483 109.38 18.5403 108.972 18.0003C108.563 17.4723 108.275 16.8483 108.095 16.1403C107.915 15.4323 107.879 14.6403 107.999 13.8483C108.119 13.0563 108.347 12.3003 108.684 11.5923C109.032 10.8843 109.476 10.2603 110.016 9.70826C110.557 9.15626 111.169 8.72426 111.854 8.40026C112.526 8.07626 113.271 7.92026 114.051 7.92026C114.736 7.92026 115.396 8.08826 116.032 8.42426C116.669 8.74826 117.221 9.20426 117.702 9.78026C118.182 10.3563 118.494 11.0043 118.65 11.7243Z" fill="#171717"/>
</svg>
