<svg width="223" height="24" viewBox="0 0 223 24" fill="none" xmlns="http://www.w3.org/2000/svg">
<path d="M22.9384 0.0023789L21.5108 6.61683L20.8374 9.65282H16.5832L17.1923 6.90235H9.54289L6.9328 18.9892H13.2142L12.1316 23.9976H5.85259C0.394479 23.9976 -0.690482 20.8046 0.35879 15.9389C1.01072 12.922 2.37168 6.61445 2.37168 6.61445L3.79926 0H22.9336L22.9384 0.0023789Z" fill="#009981"/>
<path d="M19.9338 14.3496L19.3223 17.1H26.9718L29.5819 5.01319H23.3005L24.3831 0.00238037H30.6621C36.1225 0.00238037 37.2051 3.1954 36.1559 8.06107C35.5039 11.078 34.143 17.3855 34.143 17.3855L32.7154 24H13.5811L15.0086 17.3855L15.6796 14.3496H19.9338Z" fill="#00483D"/>
<path d="M44.7852 21.0093V7.48063H47.6855V12.7555H51.8041V7.48063H54.7045V21.0093H51.8041V15.6749H47.6855V21.0093H44.7852Z" fill="#00483D"/>
<path d="M61.2455 17.1621C61.2455 17.7807 61.5667 18.09 62.2115 18.09H63.9889C64.3362 18.09 64.5837 18.0353 64.7336 17.9258C64.8811 17.8164 64.9549 17.5927 64.9549 17.2596V11.3256C64.9549 10.9783 64.8835 10.7356 64.7407 10.6C64.598 10.4643 64.3434 10.3977 63.9793 10.3977H62.1806C61.8166 10.3977 61.5691 10.462 61.4382 10.5904C61.3074 10.7189 61.2431 10.964 61.2431 11.3233V17.1597L61.2455 17.1621ZM58.3452 10.3977C58.3452 10.1788 58.3713 9.94089 58.4213 9.68154C58.5902 8.88448 58.9233 8.30869 59.4254 7.96131C59.8893 7.6401 60.5436 7.47831 61.393 7.47831H64.8287C66.8488 7.47831 67.8576 8.45145 67.8576 10.3953V18.0876C67.8576 20.0339 66.8393 21.0046 64.8026 21.0046H61.3788C60.4889 21.0046 59.8251 20.8571 59.3873 20.5573C58.8972 20.2076 58.5759 19.6175 58.4213 18.7847C58.3689 18.5016 58.3428 18.2661 58.3428 18.0852V10.393L58.3452 10.3977Z" fill="#00483D"/>
<path d="M77.9147 15.3276L76.5394 10.9568L75.533 15.3276H77.9147ZM70.6982 21.0093L74.4504 9.16279C74.8358 7.96363 75.5972 7.36404 76.7321 7.36404C77.8671 7.36404 78.6261 7.96838 79.0139 9.17945L82.7446 21.0093H79.7039L78.7855 18.0923H74.6669L73.7628 21.0093H70.7006H70.6982Z" fill="#00483D"/>
<path d="M85.8799 21.0092V10.1668C85.8799 9.37922 86.0797 8.72254 86.4795 8.19671C86.9173 7.61616 87.5168 7.32589 88.2782 7.32589C88.5994 7.32589 88.923 7.38299 89.2442 7.49958C90.0294 7.78509 90.5671 8.46795 90.8479 9.54815L92.8964 17.376V7.48054H95.6612V18.6704C95.6612 19.3651 95.4375 19.9552 94.995 20.4406C94.5501 20.9212 93.9885 21.1782 93.3057 21.202C92.0185 21.2424 91.1619 20.4739 90.7384 18.9012L88.6637 11.128V21.0092H85.8799Z" fill="#00483D"/>
<path d="M99.2959 17.1834V10.8236C99.2959 9.58632 99.5433 8.72025 100.041 8.22535C100.538 7.72808 101.397 7.48063 102.622 7.48063H108.114V10.3977H102.739C102.429 10.4357 102.249 10.6237 102.196 10.9592V17.5308C102.275 17.8258 102.479 18.0138 102.815 18.0923H105.137C105.703 18.0923 106.013 17.8924 106.065 17.4927V13.2409H108.965V17.5712C108.965 18.4349 108.882 19.044 108.713 19.4057C108.211 20.474 107.302 21.0093 105.986 21.0093H102.641C100.669 21.0093 99.5743 20.2503 99.3554 18.73C99.3173 18.473 99.2983 17.9567 99.2983 17.1834" fill="#00483D"/>
<path d="M117.682 21.0093V7.48063H120.582V12.7555H124.701V7.48063H127.601V21.0093H124.701V15.6749H120.582V21.0093H117.682Z" fill="#00483D"/>
<path d="M137.952 15.3275L136.577 10.9567L135.57 15.3275H137.952ZM130.738 21.0093L134.488 9.16275C134.873 7.96358 135.634 7.364 136.769 7.364C137.904 7.364 138.663 7.96834 139.051 9.1794L142.782 21.0093H139.741L138.82 18.0923H134.702L133.798 21.0093H130.735H130.738Z" fill="#00483D"/>
<path d="M151.502 21.0093V9.8575C151.502 9.0985 151.735 8.48226 152.199 8.01116C152.663 7.54006 153.277 7.30451 154.038 7.30451C154.295 7.30451 154.555 7.33068 154.812 7.38065C155.739 7.57575 156.308 8.14202 156.513 9.08185L158.214 16.8978L160.094 9.08185C160.324 8.14202 160.886 7.57575 161.773 7.38065C162.018 7.33068 162.283 7.30451 162.566 7.30451C163.325 7.30451 163.936 7.54006 164.4 8.01116C164.864 8.47988 165.095 9.09612 165.095 9.8575V21.0093H162.33V11.3255L160.222 19.4818C160.158 19.753 160.056 20.029 159.913 20.3121C159.592 20.9831 159.049 21.3186 158.29 21.3186C157.31 21.3186 156.665 20.7071 156.356 19.4818L154.286 11.3255V21.0093H151.502Z" fill="#009981"/>
<path d="M171.616 17.1621C171.616 17.7807 171.937 18.09 172.582 18.09H174.362C174.709 18.09 174.959 18.0353 175.107 17.9258C175.254 17.8164 175.328 17.5927 175.328 17.2596V11.3256C175.328 10.9783 175.257 10.7356 175.114 10.6C174.971 10.4643 174.716 10.3977 174.352 10.3977H172.554C172.19 10.3977 171.942 10.462 171.811 10.5904C171.68 10.7189 171.616 10.964 171.616 11.3233V17.1597V17.1621ZM168.716 10.3977C168.716 10.1788 168.742 9.9409 168.792 9.68155C168.959 8.88449 169.294 8.3087 169.796 7.96132C170.26 7.64011 170.914 7.47832 171.764 7.47832H175.199C177.219 7.47832 178.228 8.45146 178.228 10.3953V18.0876C178.228 20.0339 177.21 21.0046 175.173 21.0046H171.752C170.862 21.0046 170.198 20.8571 169.76 20.5573C169.27 20.2076 168.949 19.6175 168.794 18.7848C168.742 18.5016 168.716 18.2661 168.716 18.0852V10.393V10.3977Z" fill="#009981"/>
<path d="M184.762 18.09H187.971C188.409 18.0377 188.628 17.7879 188.628 17.3358V16.465C188.628 16.0129 188.39 15.7488 187.914 15.6727H184.762C184.788 17.2716 184.788 18.0758 184.762 18.09ZM184.762 12.7533H187.959C188.407 12.7533 188.628 12.5082 188.628 12.0205V11.1306C188.628 10.9379 188.564 10.7666 188.438 10.619C188.312 10.4715 188.15 10.3978 187.959 10.3978H184.762V12.7557V12.7533ZM181.861 7.47837H188.868C189.865 7.47837 190.603 7.78054 191.081 8.38726C191.405 8.79888 191.566 9.51505 191.566 10.531V11.6326C191.566 12.9341 191.167 13.7907 190.367 14.2023C191.038 14.5092 191.424 15.1421 191.528 16.0962C191.555 16.3294 191.566 16.5007 191.566 16.6173V17.9711C191.566 18.1495 191.552 18.3423 191.528 18.5493C191.321 20.1862 190.386 21.0047 188.726 21.0047H181.861V7.47599V7.47837Z" fill="#009981"/>
<path d="M198.085 7.48063H195.185V21.0093H198.085V7.48063Z" fill="#009981"/>
<path d="M201.74 17.7045V7.48063H204.641V17.4713C204.641 17.8829 204.886 18.0899 205.373 18.0899H210.537L210.517 21.007H205.124C204.931 21.007 204.762 21.0022 204.619 20.9879C203.575 20.8975 202.835 20.5906 202.397 20.0695C201.959 19.5484 201.74 18.7585 201.74 17.7021" fill="#009981"/>
<path d="M213.884 18.1827V10.4C213.884 10.2477 213.903 10.0478 213.941 9.80516C214.186 8.25623 215.11 7.48296 216.706 7.48296H222.719V10.4H217.458C217.42 10.4 217.36 10.419 217.284 10.4571C216.949 10.5618 216.782 10.8235 216.782 11.2494V12.7555H222.719V15.6749H216.782V17.1834C216.782 17.7354 217.034 18.0399 217.536 18.0923H222.719V21.0093H217.111C214.957 21.0093 213.882 20.0671 213.882 18.1827" fill="#009981"/>
<path d="M79.0676 3.86285L75.0728 2.82228C74.8859 2.77359 74.6949 2.88565 74.6462 3.07258L74.2834 4.46558C74.2347 4.65251 74.3467 4.84351 74.5337 4.8922L78.5285 5.93277C78.7154 5.98146 78.9064 5.8694 78.9551 5.68247L79.3179 4.28947C79.3666 4.10255 79.2546 3.91154 79.0676 3.86285Z" fill="#00483D"/>
<path d="M139.029 3.85913L135.034 2.81857C134.847 2.76987 134.656 2.88194 134.607 3.06886L134.244 4.46186C134.196 4.64879 134.308 4.8398 134.495 4.88849L138.489 5.92905C138.676 5.97774 138.867 5.86568 138.916 5.67875L139.279 4.28576C139.328 4.09883 139.215 3.90782 139.029 3.85913Z" fill="#00483D"/>
</svg>
