<svg width="122" height="32" viewBox="0 0 122 32" fill="none" xmlns="http://www.w3.org/2000/svg">
<path d="M83.6578 6.35506L84.5561 0H92.1116L83.6739 6.35506H83.6578Z" fill="white"/>
<path d="M80.1287 31.5025L83.5616 7.10933H90.315L86.8821 31.5025H80.1287Z" fill="white"/>
<path d="M69.8943 31.4865H76.7119L76.6959 31.4544L79.0058 14.9729C79.1983 13.7372 79.2465 12.5015 79.1983 11.2818C79.1502 10.0622 78.9096 8.95486 78.4925 7.94383C78.0754 6.9328 77.3696 6.14644 76.3911 5.55266C75.4126 4.95888 74.0811 4.67001 72.4289 4.67001C70.8729 4.67001 69.381 4.89468 67.9694 5.32798C66.5417 5.76128 65.2584 6.37111 64.1034 7.14142C62.9324 7.91173 61.9378 8.87462 61.1037 10.014L61.7935 5.08726H55.6496L51.9441 31.4704H58.6975L60.8631 16.0963C61.4245 15.0371 62.1143 14.0903 62.9645 13.2879C63.8147 12.4855 64.729 11.8435 65.7236 11.3781C66.7182 10.9127 67.6806 10.6881 68.595 10.6881C69.9425 10.6881 70.921 11.1856 71.5145 12.1484C72.1081 13.1113 72.2524 14.652 71.9637 16.7543L69.8943 31.4865Z" fill="white"/>
<path d="M11.2471 32C8.96922 32 6.85175 31.6309 4.87867 30.8766C2.90558 30.1224 1.28541 29.0311 0.0341797 27.5707L3.1462 23.1414C4.52576 24.4253 5.9374 25.3721 7.36508 25.9819C8.8088 26.5918 10.2525 26.8967 11.7123 26.8967C13.0277 26.8967 14.1185 26.672 14.9847 26.2066C15.851 25.7412 16.3322 25.0672 16.4605 24.1525C16.5568 23.4784 16.4124 22.9809 16.0114 22.6279C15.6264 22.2748 15.0329 21.9699 14.2308 21.7292C13.4287 21.4724 12.4662 21.1836 11.3273 20.8465C9.45045 20.2367 7.89445 19.6269 6.6753 19.0171C5.45616 18.4072 4.57388 17.6209 4.02848 16.7061C3.48307 15.7914 3.30662 14.6038 3.51515 13.1755C3.75577 11.4423 4.41347 9.93381 5.48824 8.68205C6.56301 7.4303 7.95861 6.45136 9.659 5.74524C11.3594 5.03912 13.3004 4.68606 15.466 4.68606C17.3588 4.68606 19.1234 4.99098 20.7275 5.56871C22.3317 6.16249 23.7433 7.12538 24.9464 8.44133L21.5296 12.8064C20.3586 11.7152 19.2036 10.9288 18.0486 10.4473C16.8937 9.94985 15.6905 9.70913 14.4393 9.70913C13.7335 9.70913 13.0437 9.78937 12.4021 9.9659C11.7604 10.1424 11.199 10.4153 10.7659 10.7844C10.3167 11.1695 10.044 11.7151 9.94773 12.4052C9.86753 12.999 9.97982 13.4965 10.2846 13.8496C10.5894 14.2187 11.0867 14.5236 11.7765 14.7964C12.4662 15.0692 13.3164 15.3581 14.311 15.6951C16.3643 16.3049 18.0647 16.8987 19.4442 17.5246C20.8077 18.1505 21.8183 18.9208 22.444 19.8516C23.0696 20.7824 23.2781 22.0502 23.0535 23.655C22.6846 26.2548 21.4334 28.2929 19.2999 29.7533C17.1664 31.2297 14.4714 31.9519 11.215 31.9519L11.2471 32Z" fill="white"/>
<path fill-rule="evenodd" clip-rule="evenodd" d="M36.3518 32C34.2183 32 32.3415 31.6469 30.7053 30.9247C29.069 30.2026 27.7376 29.2076 26.6949 27.9558C25.6522 26.7041 24.9143 25.2597 24.4973 23.6549C24.0802 22.0501 24 20.3169 24.2566 18.4714C24.6095 15.9839 25.4918 13.7051 26.9195 11.6028C28.3472 9.50045 30.1919 7.83145 32.4538 6.57969C34.7156 5.32794 37.2983 4.70206 40.2178 4.70206C43.1373 4.70206 45.4794 5.32794 47.3722 6.59574C49.2651 7.86354 50.6286 9.50045 51.4468 11.5546C52.2809 13.6088 52.5215 15.8395 52.1846 18.2467C52.1205 18.68 52.0403 19.0972 51.9601 19.4824C51.9229 19.6311 51.8905 19.7703 51.8602 19.9008C51.8119 20.1083 51.7687 20.2939 51.7194 20.4613H31.1865C31.0903 21.8575 31.2988 23.0451 31.8282 24.008C32.3575 24.9709 33.0954 25.7412 34.0579 26.2708C35.0204 26.8004 36.0791 27.0571 37.2181 27.0571C38.6137 27.0571 39.9451 26.7201 41.2444 26.0621C42.5438 25.4042 43.4902 24.5055 44.0838 23.3981L49.6501 25.019C48.848 26.3831 47.7893 27.5707 46.4418 28.6298C45.1104 29.673 43.5865 30.5075 41.8861 31.1013C40.1697 31.695 38.3249 31.9839 36.3197 31.9839L36.3518 32ZM45.5275 16.1925C45.5756 14.8605 45.351 13.7211 44.8698 12.7422C44.3885 11.7632 43.6667 11.009 42.7202 10.4633C41.7738 9.91771 40.683 9.64489 39.4318 9.64489C38.1805 9.64489 37.0576 9.91771 35.9829 10.4633C34.9081 11.009 33.9937 11.7632 33.2238 12.7422C32.4538 13.7211 31.9084 14.8766 31.5875 16.1925H45.5275Z" fill="white"/>
<path fill-rule="evenodd" clip-rule="evenodd" d="M93.2505 11.4423C91.9512 13.5125 91.117 15.8074 90.7641 18.327V18.3109C90.5075 20.2207 90.5556 22.018 90.9566 23.671C91.3416 25.34 92.0154 26.8004 92.9778 28.0522C93.9403 29.32 95.1434 30.2828 96.5872 30.9729C98.0309 31.663 99.6671 32 101.496 32C103.325 32 105.137 31.5667 106.934 30.684C108.73 29.8014 110.238 28.5175 111.457 26.8646L111.329 28.5496C111.297 29.5286 111.634 30.331 112.34 30.9408C113.046 31.5506 114.024 31.8395 115.243 31.8074C115.949 31.8395 116.928 31.7432 118.179 31.5025L118.965 25.9659C118.403 25.9017 118.018 25.7091 117.826 25.4042C117.633 25.0993 117.585 24.5858 117.682 23.8796L121.034 0H114.168L112.789 9.83751C112.147 8.34503 111.105 7.10933 109.645 6.14644C108.185 5.18355 106.485 4.70211 104.56 4.70211C102.266 4.70211 100.116 5.31193 98.1592 6.51554C96.2022 7.71916 94.5659 9.37212 93.2505 11.4423ZM112.035 15.5827L111.169 21.7613H111.153C110.864 22.4353 110.431 23.0291 109.885 23.5587C109.34 24.0883 108.73 24.5537 108.089 24.9549C107.431 25.3561 106.773 25.677 106.1 25.8857C105.426 26.0943 104.752 26.2066 104.078 26.2066C103.02 26.2066 102.073 26.014 101.207 25.6289C100.357 25.2437 99.651 24.6981 99.1056 23.9759C98.5602 23.2698 98.1752 22.4353 97.9346 21.4885C97.694 20.5416 97.6459 19.4824 97.8063 18.4233C97.9667 17.3641 98.2715 16.3531 98.7206 15.4062C99.1859 14.4594 99.7794 13.6249 100.501 12.8867C101.223 12.1484 102.041 11.5707 102.956 11.1374C103.854 10.7041 104.848 10.4955 105.891 10.4955C106.805 10.4955 107.688 10.7202 108.538 11.1695C109.388 11.6028 110.126 12.2126 110.768 12.9829C111.409 13.7533 111.826 14.6199 112.035 15.5827Z" fill="white"/>
</svg>
